<?xml version="1.0" encoding="UTF-8" standalone="no"?>
<!DOCTYPE svg PUBLIC "-//W3C//DTD SVG 1.1//EN"
 "http://www.w3.org/Graphics/SVG/1.1/DTD/svg11.dtd">
<!-- Generated by graphviz version 2.38.0 (20140413.2041)
 -->
<!-- Title: G Pages: 1 -->
<svg width="6407pt" height="272pt"
 viewBox="0.00 0.00 6407.00 272.00" xmlns="http://www.w3.org/2000/svg" xmlns:xlink="http://www.w3.org/1999/xlink">
<g id="graph0" class="graph" transform="scale(1 1) rotate(0) translate(4 268)">
<title>G</title>
<polygon fill="white" stroke="none" points="-4,4 -4,-268 6403,-268 6403,4 -4,4"/>
<!-- 98490781594 -->
<g id="node1" class="node"><title>98490781594</title>
<polygon fill="none" stroke="black" points="5340,-225.5 5340,-263.5 5846,-263.5 5846,-225.5 5340,-225.5"/>
<text text-anchor="middle" x="5350" y="-240.8" font-family="Times New Roman,serif" font-size="14.00"> </text>
<polyline fill="none" stroke="black" points="5360,-225.5 5360,-263.5 "/>
<text text-anchor="middle" x="5507.5" y="-248.3" font-family="Times New Roman,serif" font-size="14.00">778</text>
<text text-anchor="middle" x="5507.5" y="-233.3" font-family="Times New Roman,serif" font-size="14.00">Arquitectura de computadores y ensambladores 1</text>
<polyline fill="none" stroke="black" points="5655,-225.5 5655,-263.5 "/>
<text text-anchor="middle" x="5665" y="-240.8" font-family="Times New Roman,serif" font-size="14.00"> </text>
<polyline fill="none" stroke="black" points="5675,-225.5 5675,-263.5 "/>
<text text-anchor="middle" x="5750.5" y="-248.3" font-family="Times New Roman,serif" font-size="14.00">798</text>
<text text-anchor="middle" x="5750.5" y="-233.3" font-family="Times New Roman,serif" font-size="14.00">Seminario de sistemas 2</text>
<polyline fill="none" stroke="black" points="5826,-225.5 5826,-263.5 "/>
<text text-anchor="middle" x="5836" y="-240.8" font-family="Times New Roman,serif" font-size="14.00"> </text>
</g>
<!-- 98490772667 -->
<g id="node2" class="node"><title>98490772667</title>
<polygon fill="none" stroke="black" points="3553,-150.5 3553,-188.5 3827,-188.5 3827,-150.5 3553,-150.5"/>
<text text-anchor="middle" x="3563" y="-165.8" font-family="Times New Roman,serif" font-size="14.00"> </text>
<polyline fill="none" stroke="black" points="3573,-150.5 3573,-188.5 "/>
<text text-anchor="middle" x="3617.5" y="-173.3" font-family="Times New Roman,serif" font-size="14.00">147</text>
<text text-anchor="middle" x="3617.5" y="-158.3" font-family="Times New Roman,serif" font-size="14.00">Fisica basica</text>
<polyline fill="none" stroke="black" points="3662,-150.5 3662,-188.5 "/>
<text text-anchor="middle" x="3672" y="-165.8" font-family="Times New Roman,serif" font-size="14.00"> </text>
<polyline fill="none" stroke="black" points="3682,-150.5 3682,-188.5 "/>
<text text-anchor="middle" x="3744.5" y="-173.3" font-family="Times New Roman,serif" font-size="14.00">772</text>
<text text-anchor="middle" x="3744.5" y="-158.3" font-family="Times New Roman,serif" font-size="14.00">Estructura de datos</text>
<polyline fill="none" stroke="black" points="3807,-150.5 3807,-188.5 "/>
<text text-anchor="middle" x="3817" y="-165.8" font-family="Times New Roman,serif" font-size="14.00"> </text>
</g>
<!-- 98490781594&#45;&gt;98490772667 -->
<g id="edge1" class="edge"><title>98490781594:98490781465&#45;&gt;98490772667</title>
<path fill="none" stroke="black" d="M5339,-244.5C4784.25,-244.5 4125.59,-202.187 3837.36,-181.553"/>
<polygon fill="black" stroke="black" points="3837.49,-178.053 3827.26,-180.828 3836.99,-185.035 3837.49,-178.053"/>
</g>
<!-- 98490781672 -->
<g id="node17" class="node"><title>98490781672</title>
<polygon fill="none" stroke="black" points="5423.5,-150.5 5423.5,-188.5 5906.5,-188.5 5906.5,-150.5 5423.5,-150.5"/>
<text text-anchor="middle" x="5433.5" y="-165.8" font-family="Times New Roman,serif" font-size="14.00"> </text>
<polyline fill="none" stroke="black" points="5443.5,-150.5 5443.5,-188.5 "/>
<text text-anchor="middle" x="5538.5" y="-173.3" font-family="Times New Roman,serif" font-size="14.00">785</text>
<text text-anchor="middle" x="5538.5" y="-158.3" font-family="Times New Roman,serif" font-size="14.00">Analisis y diseño de sistemas 2</text>
<polyline fill="none" stroke="black" points="5633.5,-150.5 5633.5,-188.5 "/>
<text text-anchor="middle" x="5643.5" y="-165.8" font-family="Times New Roman,serif" font-size="14.00"> </text>
<polyline fill="none" stroke="black" points="5653.5,-150.5 5653.5,-188.5 "/>
<text text-anchor="middle" x="5770" y="-173.3" font-family="Times New Roman,serif" font-size="14.00">796</text>
<text text-anchor="middle" x="5770" y="-158.3" font-family="Times New Roman,serif" font-size="14.00">Lenguajes formales y de programacion</text>
<polyline fill="none" stroke="black" points="5886.5,-150.5 5886.5,-188.5 "/>
<text text-anchor="middle" x="5896.5" y="-165.8" font-family="Times New Roman,serif" font-size="14.00"> </text>
</g>
<!-- 98490781594&#45;&gt;98490781672 -->
<g id="edge16" class="edge"><title>98490781594:98490781962&#45;&gt;98490781672</title>
<path fill="none" stroke="black" d="M5665,-225C5665,-216.484 5665,-207.22 5665,-198.787"/>
<polygon fill="black" stroke="black" points="5668.5,-198.667 5665,-188.667 5661.5,-198.667 5668.5,-198.667"/>
</g>
<!-- 98490782025 -->
<g id="node20" class="node"><title>98490782025</title>
<polygon fill="none" stroke="black" points="5927,-150.5 5927,-188.5 6399,-188.5 6399,-150.5 5927,-150.5"/>
<text text-anchor="middle" x="5937" y="-165.8" font-family="Times New Roman,serif" font-size="14.00"> </text>
<polyline fill="none" stroke="black" points="5947,-150.5 5947,-188.5 "/>
<text text-anchor="middle" x="6029.5" y="-173.3" font-family="Times New Roman,serif" font-size="14.00">799</text>
<text text-anchor="middle" x="6029.5" y="-158.3" font-family="Times New Roman,serif" font-size="14.00">Seminario de investigacion</text>
<polyline fill="none" stroke="black" points="6112,-150.5 6112,-188.5 "/>
<text text-anchor="middle" x="6122" y="-165.8" font-family="Times New Roman,serif" font-size="14.00"> </text>
<polyline fill="none" stroke="black" points="6132,-150.5 6132,-188.5 "/>
<text text-anchor="middle" x="6255.5" y="-173.3" font-family="Times New Roman,serif" font-size="14.00">972</text>
<text text-anchor="middle" x="6255.5" y="-158.3" font-family="Times New Roman,serif" font-size="14.00">Sistemas organizacionales y gerenciales 1</text>
<polyline fill="none" stroke="black" points="6379,-150.5 6379,-188.5 "/>
<text text-anchor="middle" x="6389" y="-165.8" font-family="Times New Roman,serif" font-size="14.00"> </text>
</g>
<!-- 98490781594&#45;&gt;98490782025 -->
<g id="edge20" class="edge"><title>98490781594:98490782031&#45;&gt;98490782025</title>
<path fill="none" stroke="black" d="M5847,-244.5C5939.93,-244.5 6044.28,-213.786 6106.76,-191.933"/>
<polygon fill="black" stroke="black" points="6108.16,-195.148 6116.42,-188.508 6105.82,-188.551 6108.16,-195.148"/>
</g>
<!-- 98490772673 -->
<g id="node3" class="node"><title>98490772673</title>
<polygon fill="none" stroke="black" points="806,-75.5 806,-113.5 1380,-113.5 1380,-75.5 806,-75.5"/>
<text text-anchor="middle" x="816" y="-90.8" font-family="Times New Roman,serif" font-size="14.00"> </text>
<polyline fill="none" stroke="black" points="826,-75.5 826,-113.5 "/>
<text text-anchor="middle" x="881" y="-98.3" font-family="Times New Roman,serif" font-size="14.00">8</text>
<text text-anchor="middle" x="881" y="-83.3" font-family="Times New Roman,serif" font-size="14.00">Idioma tecnico 2</text>
<polyline fill="none" stroke="black" points="936,-75.5 936,-113.5 "/>
<text text-anchor="middle" x="946" y="-90.8" font-family="Times New Roman,serif" font-size="14.00"> </text>
<polyline fill="none" stroke="black" points="956,-75.5 956,-113.5 "/>
<text text-anchor="middle" x="1023" y="-98.3" font-family="Times New Roman,serif" font-size="14.00">17</text>
<text text-anchor="middle" x="1023" y="-83.3" font-family="Times New Roman,serif" font-size="14.00">Social Humanistica 1</text>
<polyline fill="none" stroke="black" points="1090,-75.5 1090,-113.5 "/>
<text text-anchor="middle" x="1100" y="-90.8" font-family="Times New Roman,serif" font-size="14.00"> </text>
<polyline fill="none" stroke="black" points="1110,-75.5 1110,-113.5 "/>
<text text-anchor="middle" x="1149" y="-98.3" font-family="Times New Roman,serif" font-size="14.00">39</text>
<text text-anchor="middle" x="1149" y="-83.3" font-family="Times New Roman,serif" font-size="14.00">Deportes 1</text>
<polyline fill="none" stroke="black" points="1188,-75.5 1188,-113.5 "/>
<text text-anchor="middle" x="1198" y="-90.8" font-family="Times New Roman,serif" font-size="14.00"> </text>
<polyline fill="none" stroke="black" points="1208,-75.5 1208,-113.5 "/>
<text text-anchor="middle" x="1284" y="-98.3" font-family="Times New Roman,serif" font-size="14.00">107</text>
<text text-anchor="middle" x="1284" y="-83.3" font-family="Times New Roman,serif" font-size="14.00">Matematica intermedia 1</text>
<polyline fill="none" stroke="black" points="1360,-75.5 1360,-113.5 "/>
<text text-anchor="middle" x="1370" y="-90.8" font-family="Times New Roman,serif" font-size="14.00"> </text>
</g>
<!-- 98490772667&#45;&gt;98490772673 -->
<g id="edge2" class="edge"><title>98490772667:98490772646&#45;&gt;98490772673</title>
<path fill="none" stroke="black" d="M3552,-169.5C2771.62,-169.5 1852.57,-131.804 1390.32,-110.221"/>
<polygon fill="black" stroke="black" points="1390.31,-106.717 1380.16,-109.746 1389.99,-113.71 1390.31,-106.717"/>
</g>
<!-- 98490781630 -->
<g id="node9" class="node"><title>98490781630</title>
<polygon fill="none" stroke="black" points="2427,-75.5 2427,-113.5 3207,-113.5 3207,-75.5 2427,-75.5"/>
<text text-anchor="middle" x="2437" y="-90.8" font-family="Times New Roman,serif" font-size="14.00"> </text>
<polyline fill="none" stroke="black" points="2447,-75.5 2447,-113.5 "/>
<text text-anchor="middle" x="2516.5" y="-98.3" font-family="Times New Roman,serif" font-size="14.00">281</text>
<text text-anchor="middle" x="2516.5" y="-83.3" font-family="Times New Roman,serif" font-size="14.00">Sistemas operativos 1</text>
<polyline fill="none" stroke="black" points="2586,-75.5 2586,-113.5 "/>
<text text-anchor="middle" x="2596" y="-90.8" font-family="Times New Roman,serif" font-size="14.00"> </text>
<polyline fill="none" stroke="black" points="2606,-75.5 2606,-113.5 "/>
<text text-anchor="middle" x="2666" y="-98.3" font-family="Times New Roman,serif" font-size="14.00">348</text>
<text text-anchor="middle" x="2666" y="-83.3" font-family="Times New Roman,serif" font-size="14.00">Quimica General 1</text>
<polyline fill="none" stroke="black" points="2726,-75.5 2726,-113.5 "/>
<text text-anchor="middle" x="2736" y="-90.8" font-family="Times New Roman,serif" font-size="14.00"> </text>
<polyline fill="none" stroke="black" points="2746,-75.5 2746,-113.5 "/>
<text text-anchor="middle" x="2811.5" y="-98.3" font-family="Times New Roman,serif" font-size="14.00">724</text>
<text text-anchor="middle" x="2811.5" y="-83.3" font-family="Times New Roman,serif" font-size="14.00">Teoria de sistemas 2</text>
<polyline fill="none" stroke="black" points="2877,-75.5 2877,-113.5 "/>
<text text-anchor="middle" x="2887" y="-90.8" font-family="Times New Roman,serif" font-size="14.00"> </text>
<polyline fill="none" stroke="black" points="2897,-75.5 2897,-113.5 "/>
<text text-anchor="middle" x="3042" y="-98.3" font-family="Times New Roman,serif" font-size="14.00">770</text>
<text text-anchor="middle" x="3042" y="-83.3" font-family="Times New Roman,serif" font-size="14.00">Introduccion a la programacion y computacion 1</text>
<polyline fill="none" stroke="black" points="3187,-75.5 3187,-113.5 "/>
<text text-anchor="middle" x="3197" y="-90.8" font-family="Times New Roman,serif" font-size="14.00"> </text>
</g>
<!-- 98490772667&#45;&gt;98490781630 -->
<g id="edge8" class="edge"><title>98490772667:98490781477&#45;&gt;98490781630</title>
<path fill="none" stroke="black" d="M3672,-150C3672,-143.347 3404.73,-127.097 3169.05,-114.061"/>
<polygon fill="black" stroke="black" points="3169.09,-110.558 3158.91,-113.501 3168.7,-117.547 3169.09,-110.558"/>
</g>
<!-- 98490781600 -->
<g id="node14" class="node"><title>98490781600</title>
<polygon fill="none" stroke="black" points="3618.5,-75.5 3618.5,-113.5 4569.5,-113.5 4569.5,-75.5 3618.5,-75.5"/>
<text text-anchor="middle" x="3628.5" y="-90.8" font-family="Times New Roman,serif" font-size="14.00"> </text>
<polyline fill="none" stroke="black" points="3638.5,-75.5 3638.5,-113.5 "/>
<text text-anchor="middle" x="3752" y="-98.3" font-family="Times New Roman,serif" font-size="14.00">773</text>
<text text-anchor="middle" x="3752" y="-83.3" font-family="Times New Roman,serif" font-size="14.00">Manejo e implementacion de archivos</text>
<polyline fill="none" stroke="black" points="3865.5,-75.5 3865.5,-113.5 "/>
<text text-anchor="middle" x="3875.5" y="-90.8" font-family="Times New Roman,serif" font-size="14.00"> </text>
<polyline fill="none" stroke="black" points="3885.5,-75.5 3885.5,-113.5 "/>
<text text-anchor="middle" x="3976" y="-98.3" font-family="Times New Roman,serif" font-size="14.00">774</text>
<text text-anchor="middle" x="3976" y="-83.3" font-family="Times New Roman,serif" font-size="14.00">Sistemas de bases de datos 1</text>
<polyline fill="none" stroke="black" points="4066.5,-75.5 4066.5,-113.5 "/>
<text text-anchor="middle" x="4076.5" y="-90.8" font-family="Times New Roman,serif" font-size="14.00"> </text>
<polyline fill="none" stroke="black" points="4086.5,-75.5 4086.5,-113.5 "/>
<text text-anchor="middle" x="4177" y="-98.3" font-family="Times New Roman,serif" font-size="14.00">775</text>
<text text-anchor="middle" x="4177" y="-83.3" font-family="Times New Roman,serif" font-size="14.00">Sistemas de bases de datos 2</text>
<polyline fill="none" stroke="black" points="4267.5,-75.5 4267.5,-113.5 "/>
<text text-anchor="middle" x="4277.5" y="-90.8" font-family="Times New Roman,serif" font-size="14.00"> </text>
<polyline fill="none" stroke="black" points="4287.5,-75.5 4287.5,-113.5 "/>
<text text-anchor="middle" x="4418.5" y="-98.3" font-family="Times New Roman,serif" font-size="14.00">777</text>
<text text-anchor="middle" x="4418.5" y="-83.3" font-family="Times New Roman,serif" font-size="14.00">Organizacion de lenguajes y compiladores 1</text>
<polyline fill="none" stroke="black" points="4549.5,-75.5 4549.5,-113.5 "/>
<text text-anchor="middle" x="4559.5" y="-90.8" font-family="Times New Roman,serif" font-size="14.00"> </text>
</g>
<!-- 98490772667&#45;&gt;98490781600 -->
<g id="edge13" class="edge"><title>98490772667:98490781564&#45;&gt;98490781600</title>
<path fill="none" stroke="black" d="M3828,-169.5C3906.29,-169.5 3992.96,-139.377 4045.45,-117.569"/>
<polygon fill="black" stroke="black" points="4046.99,-120.717 4054.84,-113.602 4044.27,-114.268 4046.99,-120.717"/>
</g>
<!-- 98490781636 -->
<g id="node15" class="node"><title>98490781636</title>
<polygon fill="none" stroke="black" points="4588,-75.5 4588,-113.5 5348,-113.5 5348,-75.5 4588,-75.5"/>
<text text-anchor="middle" x="4598" y="-90.8" font-family="Times New Roman,serif" font-size="14.00"> </text>
<polyline fill="none" stroke="black" points="4608,-75.5 4608,-113.5 "/>
<text text-anchor="middle" x="4755.5" y="-98.3" font-family="Times New Roman,serif" font-size="14.00">779</text>
<text text-anchor="middle" x="4755.5" y="-83.3" font-family="Times New Roman,serif" font-size="14.00">Arquitectura de computadores y ensambladores 2</text>
<polyline fill="none" stroke="black" points="4903,-75.5 4903,-113.5 "/>
<text text-anchor="middle" x="4913" y="-90.8" font-family="Times New Roman,serif" font-size="14.00"> </text>
<polyline fill="none" stroke="black" points="4923,-75.5 4923,-113.5 "/>
<text text-anchor="middle" x="4984.5" y="-98.3" font-family="Times New Roman,serif" font-size="14.00">780</text>
<text text-anchor="middle" x="4984.5" y="-83.3" font-family="Times New Roman,serif" font-size="14.00">Software avanzado</text>
<polyline fill="none" stroke="black" points="5046,-75.5 5046,-113.5 "/>
<text text-anchor="middle" x="5056" y="-90.8" font-family="Times New Roman,serif" font-size="14.00"> </text>
<polyline fill="none" stroke="black" points="5066,-75.5 5066,-113.5 "/>
<text text-anchor="middle" x="5197" y="-98.3" font-family="Times New Roman,serif" font-size="14.00">781</text>
<text text-anchor="middle" x="5197" y="-83.3" font-family="Times New Roman,serif" font-size="14.00">Organizacion de lenguajes y compiladores 2</text>
<polyline fill="none" stroke="black" points="5328,-75.5 5328,-113.5 "/>
<text text-anchor="middle" x="5338" y="-90.8" font-family="Times New Roman,serif" font-size="14.00"> </text>
</g>
<!-- 98490772667&#45;&gt;98490781636 -->
<g id="edge14" class="edge"><title>98490772667:98490781606&#45;&gt;98490781636</title>
<path fill="none" stroke="black" d="M3802.67,-150.475C3804.12,-150.311 3805.57,-150.152 3807,-150 4148.12,-113.739 4235.34,-130.127 4578,-114 4578.11,-113.995 4578.22,-113.99 4578.33,-113.985"/>
<polygon fill="black" stroke="black" points="4578.64,-117.474 4588.46,-113.508 4578.31,-110.482 4578.64,-117.474"/>
</g>
<!-- 98490772706 -->
<g id="node16" class="node"><title>98490772706</title>
<polygon fill="none" stroke="black" points="3225.5,-75.5 3225.5,-113.5 3600.5,-113.5 3600.5,-75.5 3225.5,-75.5"/>
<text text-anchor="middle" x="3235.5" y="-90.8" font-family="Times New Roman,serif" font-size="14.00"> </text>
<polyline fill="none" stroke="black" points="3245.5,-75.5 3245.5,-113.5 "/>
<text text-anchor="middle" x="3321" y="-98.3" font-family="Times New Roman,serif" font-size="14.00">797</text>
<text text-anchor="middle" x="3321" y="-83.3" font-family="Times New Roman,serif" font-size="14.00">Seminario de sistemas 1</text>
<polyline fill="none" stroke="black" points="3396.5,-75.5 3396.5,-113.5 "/>
<text text-anchor="middle" x="3406.5" y="-90.8" font-family="Times New Roman,serif" font-size="14.00"> </text>
<polyline fill="none" stroke="black" points="3416.5,-75.5 3416.5,-113.5 "/>
<text text-anchor="middle" x="3498.5" y="-98.3" font-family="Times New Roman,serif" font-size="14.00">970</text>
<text text-anchor="middle" x="3498.5" y="-83.3" font-family="Times New Roman,serif" font-size="14.00">Redes de computadoras 1</text>
<polyline fill="none" stroke="black" points="3580.5,-75.5 3580.5,-113.5 "/>
<text text-anchor="middle" x="3590.5" y="-90.8" font-family="Times New Roman,serif" font-size="14.00"> </text>
</g>
<!-- 98490772667&#45;&gt;98490772706 -->
<g id="edge15" class="edge"><title>98490772667:98490781660&#45;&gt;98490772706</title>
<path fill="none" stroke="black" d="M3682.33,-150.285C3682.22,-150.188 3682.11,-150.093 3682,-150 3664.08,-135.192 3620.75,-123.755 3573.98,-115.271"/>
<polygon fill="black" stroke="black" points="3574.42,-111.793 3563.96,-113.505 3573.2,-118.687 3574.42,-111.793"/>
</g>
<!-- 98490772661 -->
<g id="node4" class="node"><title>98490772661</title>
<polygon fill="none" stroke="black" points="0,-0.5 0,-38.5 402,-38.5 402,-0.5 0,-0.5"/>
<text text-anchor="middle" x="10" y="-15.8" font-family="Times New Roman,serif" font-size="14.00"> </text>
<polyline fill="none" stroke="black" points="20,-0.5 20,-38.5 "/>
<text text-anchor="middle" x="136" y="-23.3" font-family="Times New Roman,serif" font-size="14.00">5</text>
<text text-anchor="middle" x="136" y="-8.3" font-family="Times New Roman,serif" font-size="14.00">Tecnicas de estudio y de investigacion</text>
<polyline fill="none" stroke="black" points="252,-0.5 252,-38.5 "/>
<text text-anchor="middle" x="262" y="-15.8" font-family="Times New Roman,serif" font-size="14.00"> </text>
<polyline fill="none" stroke="black" points="272,-0.5 272,-38.5 "/>
<text text-anchor="middle" x="327" y="-23.3" font-family="Times New Roman,serif" font-size="14.00">6</text>
<text text-anchor="middle" x="327" y="-8.3" font-family="Times New Roman,serif" font-size="14.00">Idioma tecnico 1</text>
<polyline fill="none" stroke="black" points="382,-0.5 382,-38.5 "/>
<text text-anchor="middle" x="392" y="-15.8" font-family="Times New Roman,serif" font-size="14.00"> </text>
</g>
<!-- 98490772673&#45;&gt;98490772661 -->
<g id="edge3" class="edge"><title>98490772673:98490728689&#45;&gt;98490772661</title>
<path fill="none" stroke="black" d="M805,-94.5C626.461,-94.5 420.424,-62.2507 301.002,-40.331"/>
<polygon fill="black" stroke="black" points="301.608,-36.8838 291.138,-38.5078 300.336,-43.7672 301.608,-36.8838"/>
</g>
<!-- 98490772730 -->
<g id="node5" class="node"><title>98490772730</title>
<polygon fill="none" stroke="black" points="420.5,-0.5 420.5,-38.5 793.5,-38.5 793.5,-0.5 420.5,-0.5"/>
<text text-anchor="middle" x="430.5" y="-15.8" font-family="Times New Roman,serif" font-size="14.00"> </text>
<polyline fill="none" stroke="black" points="440.5,-0.5 440.5,-38.5 "/>
<text text-anchor="middle" x="495.5" y="-23.3" font-family="Times New Roman,serif" font-size="14.00">9</text>
<text text-anchor="middle" x="495.5" y="-8.3" font-family="Times New Roman,serif" font-size="14.00">Idioma tecnico 3</text>
<polyline fill="none" stroke="black" points="550.5,-0.5 550.5,-38.5 "/>
<text text-anchor="middle" x="560.5" y="-15.8" font-family="Times New Roman,serif" font-size="14.00"> </text>
<polyline fill="none" stroke="black" points="570.5,-0.5 570.5,-38.5 "/>
<text text-anchor="middle" x="625.5" y="-23.3" font-family="Times New Roman,serif" font-size="14.00">11</text>
<text text-anchor="middle" x="625.5" y="-8.3" font-family="Times New Roman,serif" font-size="14.00">Idioma tecnico 4</text>
<polyline fill="none" stroke="black" points="680.5,-0.5 680.5,-38.5 "/>
<text text-anchor="middle" x="690.5" y="-15.8" font-family="Times New Roman,serif" font-size="14.00"> </text>
<polyline fill="none" stroke="black" points="700.5,-0.5 700.5,-38.5 "/>
<text text-anchor="middle" x="737" y="-23.3" font-family="Times New Roman,serif" font-size="14.00">14</text>
<text text-anchor="middle" x="737" y="-8.3" font-family="Times New Roman,serif" font-size="14.00">Economia</text>
<polyline fill="none" stroke="black" points="773.5,-0.5 773.5,-38.5 "/>
<text text-anchor="middle" x="783.5" y="-15.8" font-family="Times New Roman,serif" font-size="14.00"> </text>
</g>
<!-- 98490772673&#45;&gt;98490772730 -->
<g id="edge4" class="edge"><title>98490772673:98490772679&#45;&gt;98490772730</title>
<path fill="none" stroke="black" d="M946,-75C946,-65.2424 857.294,-51.2065 770.635,-39.8227"/>
<polygon fill="black" stroke="black" points="770.999,-36.3405 760.63,-38.5187 770.094,-43.2818 770.999,-36.3405"/>
</g>
<!-- 98490781573 -->
<g id="node6" class="node"><title>98490781573</title>
<polygon fill="none" stroke="black" points="811.5,-0.5 811.5,-38.5 1142.5,-38.5 1142.5,-0.5 811.5,-0.5"/>
<text text-anchor="middle" x="821.5" y="-15.8" font-family="Times New Roman,serif" font-size="14.00"> </text>
<polyline fill="none" stroke="black" points="831.5,-0.5 831.5,-38.5 "/>
<text text-anchor="middle" x="900" y="-23.3" font-family="Times New Roman,serif" font-size="14.00">18</text>
<text text-anchor="middle" x="900" y="-8.3" font-family="Times New Roman,serif" font-size="14.00">Filosofia de la ciencia</text>
<polyline fill="none" stroke="black" points="968.5,-0.5 968.5,-38.5 "/>
<text text-anchor="middle" x="978.5" y="-15.8" font-family="Times New Roman,serif" font-size="14.00"> </text>
<polyline fill="none" stroke="black" points="988.5,-0.5 988.5,-38.5 "/>
<text text-anchor="middle" x="1055.5" y="-23.3" font-family="Times New Roman,serif" font-size="14.00">19</text>
<text text-anchor="middle" x="1055.5" y="-8.3" font-family="Times New Roman,serif" font-size="14.00">Social Humanistica 2</text>
<polyline fill="none" stroke="black" points="1122.5,-0.5 1122.5,-38.5 "/>
<text text-anchor="middle" x="1132.5" y="-15.8" font-family="Times New Roman,serif" font-size="14.00"> </text>
</g>
<!-- 98490772673&#45;&gt;98490781573 -->
<g id="edge5" class="edge"><title>98490772673:98490781576&#45;&gt;98490781573</title>
<path fill="none" stroke="black" d="M1100,-75C1100,-61.9532 1094.14,-52.0052 1084.99,-44.4249"/>
<polygon fill="black" stroke="black" points="1086.79,-41.4152 1076.58,-38.5983 1082.8,-47.1696 1086.79,-41.4152"/>
</g>
<!-- 98490772613 -->
<g id="node7" class="node"><title>98490772613</title>
<polygon fill="none" stroke="black" points="1161,-0.5 1161,-38.5 1483,-38.5 1483,-0.5 1161,-0.5"/>
<text text-anchor="middle" x="1171" y="-15.8" font-family="Times New Roman,serif" font-size="14.00"> </text>
<polyline fill="none" stroke="black" points="1181,-0.5 1181,-38.5 "/>
<text text-anchor="middle" x="1246.5" y="-23.3" font-family="Times New Roman,serif" font-size="14.00">101</text>
<text text-anchor="middle" x="1246.5" y="-8.3" font-family="Times New Roman,serif" font-size="14.00">Matematica Basica 1</text>
<polyline fill="none" stroke="black" points="1312,-0.5 1312,-38.5 "/>
<text text-anchor="middle" x="1322" y="-15.8" font-family="Times New Roman,serif" font-size="14.00"> </text>
<polyline fill="none" stroke="black" points="1332,-0.5 1332,-38.5 "/>
<text text-anchor="middle" x="1397.5" y="-23.3" font-family="Times New Roman,serif" font-size="14.00">103</text>
<text text-anchor="middle" x="1397.5" y="-8.3" font-family="Times New Roman,serif" font-size="14.00">Matematica Basica 2</text>
<polyline fill="none" stroke="black" points="1463,-0.5 1463,-38.5 "/>
<text text-anchor="middle" x="1473" y="-15.8" font-family="Times New Roman,serif" font-size="14.00"> </text>
</g>
<!-- 98490772673&#45;&gt;98490772613 -->
<g id="edge6" class="edge"><title>98490772673:98490772637&#45;&gt;98490772613</title>
<path fill="none" stroke="black" d="M1198,-75C1198,-61.9563 1203.82,-52.0065 1212.94,-44.4221"/>
<polygon fill="black" stroke="black" points="1215.11,-47.1754 1221.32,-38.5916 1211.12,-41.429 1215.11,-47.1754"/>
</g>
<!-- 98490781489 -->
<g id="node8" class="node"><title>98490781489</title>
<polygon fill="none" stroke="black" points="1501,-0.5 1501,-38.5 2185,-38.5 2185,-0.5 1501,-0.5"/>
<text text-anchor="middle" x="1511" y="-15.8" font-family="Times New Roman,serif" font-size="14.00"> </text>
<polyline fill="none" stroke="black" points="1521,-0.5 1521,-38.5 "/>
<text text-anchor="middle" x="1597" y="-23.3" font-family="Times New Roman,serif" font-size="14.00">112</text>
<text text-anchor="middle" x="1597" y="-8.3" font-family="Times New Roman,serif" font-size="14.00">Matematica intermedia 2</text>
<polyline fill="none" stroke="black" points="1673,-0.5 1673,-38.5 "/>
<text text-anchor="middle" x="1683" y="-15.8" font-family="Times New Roman,serif" font-size="14.00"> </text>
<polyline fill="none" stroke="black" points="1693,-0.5 1693,-38.5 "/>
<text text-anchor="middle" x="1769" y="-23.3" font-family="Times New Roman,serif" font-size="14.00">114</text>
<text text-anchor="middle" x="1769" y="-8.3" font-family="Times New Roman,serif" font-size="14.00">Matematica intermedia 3</text>
<polyline fill="none" stroke="black" points="1845,-0.5 1845,-38.5 "/>
<text text-anchor="middle" x="1855" y="-15.8" font-family="Times New Roman,serif" font-size="14.00"> </text>
<polyline fill="none" stroke="black" points="1865,-0.5 1865,-38.5 "/>
<text text-anchor="middle" x="1935" y="-23.3" font-family="Times New Roman,serif" font-size="14.00">116</text>
<text text-anchor="middle" x="1935" y="-8.3" font-family="Times New Roman,serif" font-size="14.00">Matematica aplicada 3</text>
<polyline fill="none" stroke="black" points="2005,-0.5 2005,-38.5 "/>
<text text-anchor="middle" x="2015" y="-15.8" font-family="Times New Roman,serif" font-size="14.00"> </text>
<polyline fill="none" stroke="black" points="2025,-0.5 2025,-38.5 "/>
<text text-anchor="middle" x="2095" y="-23.3" font-family="Times New Roman,serif" font-size="14.00">118</text>
<text text-anchor="middle" x="2095" y="-8.3" font-family="Times New Roman,serif" font-size="14.00">Matematica aplicada 1</text>
<polyline fill="none" stroke="black" points="2165,-0.5 2165,-38.5 "/>
<text text-anchor="middle" x="2175" y="-15.8" font-family="Times New Roman,serif" font-size="14.00"> </text>
</g>
<!-- 98490772673&#45;&gt;98490781489 -->
<g id="edge7" class="edge"><title>98490772673:98490781516&#45;&gt;98490781489</title>
<path fill="none" stroke="black" d="M1381,-94.5C1517.18,-94.5 1673.12,-62.7667 1764.55,-40.8612"/>
<polygon fill="black" stroke="black" points="1765.38,-44.2601 1774.28,-38.5078 1763.74,-37.4561 1765.38,-44.2601"/>
</g>
<!-- 98490772715 -->
<g id="node10" class="node"><title>98490772715</title>
<polygon fill="none" stroke="black" points="2203,-0.5 2203,-38.5 2383,-38.5 2383,-0.5 2203,-0.5"/>
<text text-anchor="middle" x="2213" y="-15.8" font-family="Times New Roman,serif" font-size="14.00"> </text>
<polyline fill="none" stroke="black" points="2223,-0.5 2223,-38.5 "/>
<text text-anchor="middle" x="2253" y="-23.3" font-family="Times New Roman,serif" font-size="14.00">150</text>
<text text-anchor="middle" x="2253" y="-8.3" font-family="Times New Roman,serif" font-size="14.00">Fisica 1</text>
<polyline fill="none" stroke="black" points="2283,-0.5 2283,-38.5 "/>
<text text-anchor="middle" x="2293" y="-15.8" font-family="Times New Roman,serif" font-size="14.00"> </text>
<polyline fill="none" stroke="black" points="2303,-0.5 2303,-38.5 "/>
<text text-anchor="middle" x="2333" y="-23.3" font-family="Times New Roman,serif" font-size="14.00">152</text>
<text text-anchor="middle" x="2333" y="-8.3" font-family="Times New Roman,serif" font-size="14.00">Fisica 2</text>
<polyline fill="none" stroke="black" points="2363,-0.5 2363,-38.5 "/>
<text text-anchor="middle" x="2373" y="-15.8" font-family="Times New Roman,serif" font-size="14.00"> </text>
</g>
<!-- 98490781630&#45;&gt;98490772715 -->
<g id="edge9" class="edge"><title>98490781630:98490772691&#45;&gt;98490772715</title>
<path fill="none" stroke="black" d="M2426,-94.5C2384.75,-94.5 2344.35,-66.9838 2319.11,-45.5095"/>
<polygon fill="black" stroke="black" points="2321.28,-42.7626 2311.46,-38.7921 2316.66,-48.0216 2321.28,-42.7626"/>
</g>
<!-- 98490781684 -->
<g id="node11" class="node"><title>98490781684</title>
<polygon fill="none" stroke="black" points="2401.5,-0.5 2401.5,-38.5 2790.5,-38.5 2790.5,-0.5 2401.5,-0.5"/>
<text text-anchor="middle" x="2411.5" y="-15.8" font-family="Times New Roman,serif" font-size="14.00"> </text>
<polyline fill="none" stroke="black" points="2421.5,-0.5 2421.5,-38.5 "/>
<text text-anchor="middle" x="2516.5" y="-23.3" font-family="Times New Roman,serif" font-size="14.00">283</text>
<text text-anchor="middle" x="2516.5" y="-8.3" font-family="Times New Roman,serif" font-size="14.00">Analisis y diseño de sistemas 1</text>
<polyline fill="none" stroke="black" points="2611.5,-0.5 2611.5,-38.5 "/>
<text text-anchor="middle" x="2621.5" y="-15.8" font-family="Times New Roman,serif" font-size="14.00"> </text>
<polyline fill="none" stroke="black" points="2631.5,-0.5 2631.5,-38.5 "/>
<text text-anchor="middle" x="2701" y="-23.3" font-family="Times New Roman,serif" font-size="14.00">285</text>
<text text-anchor="middle" x="2701" y="-8.3" font-family="Times New Roman,serif" font-size="14.00">Sistemas operativos 2</text>
<polyline fill="none" stroke="black" points="2770.5,-0.5 2770.5,-38.5 "/>
<text text-anchor="middle" x="2780.5" y="-15.8" font-family="Times New Roman,serif" font-size="14.00"> </text>
</g>
<!-- 98490781630&#45;&gt;98490781684 -->
<g id="edge10" class="edge"><title>98490781630:98490781690&#45;&gt;98490781684</title>
<path fill="none" stroke="black" d="M2596,-75C2596,-66.4844 2596,-57.2203 2596,-48.7865"/>
<polygon fill="black" stroke="black" points="2599.5,-48.6666 2596,-38.6667 2592.5,-48.6667 2599.5,-48.6666"/>
</g>
<!-- 98490781468 -->
<g id="node12" class="node"><title>98490781468</title>
<polygon fill="none" stroke="black" points="2809,-0.5 2809,-38.5 3585,-38.5 3585,-0.5 2809,-0.5"/>
<text text-anchor="middle" x="2819" y="-15.8" font-family="Times New Roman,serif" font-size="14.00"> </text>
<polyline fill="none" stroke="black" points="2829,-0.5 2829,-38.5 "/>
<text text-anchor="middle" x="2923.5" y="-23.3" font-family="Times New Roman,serif" font-size="14.00">601</text>
<text text-anchor="middle" x="2923.5" y="-8.3" font-family="Times New Roman,serif" font-size="14.00">Investigacion de operaciones 1</text>
<polyline fill="none" stroke="black" points="3018,-0.5 3018,-38.5 "/>
<text text-anchor="middle" x="3028" y="-15.8" font-family="Times New Roman,serif" font-size="14.00"> </text>
<polyline fill="none" stroke="black" points="3038,-0.5 3038,-38.5 "/>
<text text-anchor="middle" x="3132.5" y="-23.3" font-family="Times New Roman,serif" font-size="14.00">603</text>
<text text-anchor="middle" x="3132.5" y="-8.3" font-family="Times New Roman,serif" font-size="14.00">Investigacion de operaciones 2</text>
<polyline fill="none" stroke="black" points="3227,-0.5 3227,-38.5 "/>
<text text-anchor="middle" x="3237" y="-15.8" font-family="Times New Roman,serif" font-size="14.00"> </text>
<polyline fill="none" stroke="black" points="3247,-0.5 3247,-38.5 "/>
<text text-anchor="middle" x="3330.5" y="-23.3" font-family="Times New Roman,serif" font-size="14.00">720</text>
<text text-anchor="middle" x="3330.5" y="-8.3" font-family="Times New Roman,serif" font-size="14.00">Modelacion y simulacion 2</text>
<polyline fill="none" stroke="black" points="3414,-0.5 3414,-38.5 "/>
<text text-anchor="middle" x="3424" y="-15.8" font-family="Times New Roman,serif" font-size="14.00"> </text>
<polyline fill="none" stroke="black" points="3434,-0.5 3434,-38.5 "/>
<text text-anchor="middle" x="3499.5" y="-23.3" font-family="Times New Roman,serif" font-size="14.00">722</text>
<text text-anchor="middle" x="3499.5" y="-8.3" font-family="Times New Roman,serif" font-size="14.00">Teoria de sistemas 1</text>
<polyline fill="none" stroke="black" points="3565,-0.5 3565,-38.5 "/>
<text text-anchor="middle" x="3575" y="-15.8" font-family="Times New Roman,serif" font-size="14.00"> </text>
</g>
<!-- 98490781630&#45;&gt;98490781468 -->
<g id="edge11" class="edge"><title>98490781630:98490781540&#45;&gt;98490781468</title>
<path fill="none" stroke="black" d="M2736,-75C2736,-59.0874 2779.88,-47.806 2840.56,-39.8128"/>
<polygon fill="black" stroke="black" points="2841.36,-43.2387 2850.84,-38.5082 2840.48,-36.2943 2841.36,-43.2387"/>
</g>
<!-- 98490781483 -->
<g id="node13" class="node"><title>98490781483</title>
<polygon fill="none" stroke="black" points="3603,-0.5 3603,-38.5 4077,-38.5 4077,-0.5 3603,-0.5"/>
<text text-anchor="middle" x="3613" y="-15.8" font-family="Times New Roman,serif" font-size="14.00"> </text>
<polyline fill="none" stroke="black" points="3623,-0.5 3623,-38.5 "/>
<text text-anchor="middle" x="3706.5" y="-23.3" font-family="Times New Roman,serif" font-size="14.00">729</text>
<text text-anchor="middle" x="3706.5" y="-8.3" font-family="Times New Roman,serif" font-size="14.00">Modelacion y simulacion 1</text>
<polyline fill="none" stroke="black" points="3790,-0.5 3790,-38.5 "/>
<text text-anchor="middle" x="3800" y="-15.8" font-family="Times New Roman,serif" font-size="14.00"> </text>
<polyline fill="none" stroke="black" points="3810,-0.5 3810,-38.5 "/>
<text text-anchor="middle" x="3853.5" y="-23.3" font-family="Times New Roman,serif" font-size="14.00">732</text>
<text text-anchor="middle" x="3853.5" y="-8.3" font-family="Times New Roman,serif" font-size="14.00">Estadistica 1</text>
<polyline fill="none" stroke="black" points="3897,-0.5 3897,-38.5 "/>
<text text-anchor="middle" x="3907" y="-15.8" font-family="Times New Roman,serif" font-size="14.00"> </text>
<polyline fill="none" stroke="black" points="3917,-0.5 3917,-38.5 "/>
<text text-anchor="middle" x="3987" y="-23.3" font-family="Times New Roman,serif" font-size="14.00">736</text>
<text text-anchor="middle" x="3987" y="-8.3" font-family="Times New Roman,serif" font-size="14.00">Analisis probabilistico</text>
<polyline fill="none" stroke="black" points="4057,-0.5 4057,-38.5 "/>
<text text-anchor="middle" x="4067" y="-15.8" font-family="Times New Roman,serif" font-size="14.00"> </text>
</g>
<!-- 98490781630&#45;&gt;98490781483 -->
<g id="edge12" class="edge"><title>98490781630:98490781618&#45;&gt;98490781483</title>
<path fill="none" stroke="black" d="M2887,-75C2887,-37.4381 3496.1,-41.0445 3592.61,-38.8045"/>
<polygon fill="black" stroke="black" points="3592.84,-42.2986 3602.71,-38.4447 3592.59,-35.3031 3592.84,-42.2986"/>
</g>
<!-- 98490781672&#45;&gt;98490781636 -->
<g id="edge17" class="edge"><title>98490781672:98490781606&#45;&gt;98490781636</title>
<path fill="none" stroke="black" d="M5422,-169.5C5288.26,-169.5 5135.21,-137.831 5045.35,-115.928"/>
<polygon fill="black" stroke="black" points="5046.06,-112.498 5035.51,-113.508 5044.38,-119.296 5046.06,-112.498"/>
</g>
<!-- 98490781498 -->
<g id="node18" class="node"><title>98490781498</title>
<polygon fill="none" stroke="black" points="5366,-75.5 5366,-113.5 5920,-113.5 5920,-75.5 5366,-75.5"/>
<text text-anchor="middle" x="5376" y="-90.8" font-family="Times New Roman,serif" font-size="14.00"> </text>
<polyline fill="none" stroke="black" points="5386,-75.5 5386,-113.5 "/>
<text text-anchor="middle" x="5509.5" y="-98.3" font-family="Times New Roman,serif" font-size="14.00">786</text>
<text text-anchor="middle" x="5509.5" y="-83.3" font-family="Times New Roman,serif" font-size="14.00">Sistemas organizacionales y gerenciales 1</text>
<polyline fill="none" stroke="black" points="5633,-75.5 5633,-113.5 "/>
<text text-anchor="middle" x="5643" y="-90.8" font-family="Times New Roman,serif" font-size="14.00"> </text>
<polyline fill="none" stroke="black" points="5653,-75.5 5653,-113.5 "/>
<text text-anchor="middle" x="5776.5" y="-98.3" font-family="Times New Roman,serif" font-size="14.00">787</text>
<text text-anchor="middle" x="5776.5" y="-83.3" font-family="Times New Roman,serif" font-size="14.00">Sistemas organizacionales y gerenciales 2</text>
<polyline fill="none" stroke="black" points="5900,-75.5 5900,-113.5 "/>
<text text-anchor="middle" x="5910" y="-90.8" font-family="Times New Roman,serif" font-size="14.00"> </text>
</g>
<!-- 98490781672&#45;&gt;98490781498 -->
<g id="edge18" class="edge"><title>98490781672:98490782007&#45;&gt;98490781498</title>
<path fill="none" stroke="black" d="M5643,-150C5643,-141.484 5643,-132.22 5643,-123.787"/>
<polygon fill="black" stroke="black" points="5646.5,-123.667 5643,-113.667 5639.5,-123.667 5646.5,-123.667"/>
</g>
<!-- 98490781983 -->
<g id="node19" class="node"><title>98490781983</title>
<polygon fill="none" stroke="black" points="5938.5,-75.5 5938.5,-113.5 6393.5,-113.5 6393.5,-75.5 5938.5,-75.5"/>
<text text-anchor="middle" x="5948.5" y="-90.8" font-family="Times New Roman,serif" font-size="14.00"> </text>
<polyline fill="none" stroke="black" points="5958.5,-75.5 5958.5,-113.5 "/>
<text text-anchor="middle" x="6040.5" y="-98.3" font-family="Times New Roman,serif" font-size="14.00">975</text>
<text text-anchor="middle" x="6040.5" y="-83.3" font-family="Times New Roman,serif" font-size="14.00">Redes de computadoras 2</text>
<polyline fill="none" stroke="black" points="6122.5,-75.5 6122.5,-113.5 "/>
<text text-anchor="middle" x="6132.5" y="-90.8" font-family="Times New Roman,serif" font-size="14.00"> </text>
<polyline fill="none" stroke="black" points="6142.5,-75.5 6142.5,-113.5 "/>
<text text-anchor="middle" x="6187" y="-98.3" font-family="Times New Roman,serif" font-size="14.00">2009</text>
<text text-anchor="middle" x="6187" y="-83.3" font-family="Times New Roman,serif" font-size="14.00">Practica final</text>
<polyline fill="none" stroke="black" points="6231.5,-75.5 6231.5,-113.5 "/>
<text text-anchor="middle" x="6241.5" y="-90.8" font-family="Times New Roman,serif" font-size="14.00"> </text>
<polyline fill="none" stroke="black" points="6251.5,-75.5 6251.5,-113.5 "/>
<text text-anchor="middle" x="6312.5" y="-98.3" font-family="Times New Roman,serif" font-size="14.00">2036</text>
<text text-anchor="middle" x="6312.5" y="-83.3" font-family="Times New Roman,serif" font-size="14.00">Practica intermedia</text>
<polyline fill="none" stroke="black" points="6373.5,-75.5 6373.5,-113.5 "/>
<text text-anchor="middle" x="6383.5" y="-90.8" font-family="Times New Roman,serif" font-size="14.00"> </text>
</g>
<!-- 98490781672&#45;&gt;98490781983 -->
<g id="edge19" class="edge"><title>98490781672:98490781968&#45;&gt;98490781983</title>
<path fill="none" stroke="black" d="M5793.69,-150.491C5867.21,-139.632 5959.23,-126.041 6033.39,-115.087"/>
<polygon fill="black" stroke="black" points="6034.35,-118.483 6043.73,-113.56 6033.33,-111.559 6034.35,-118.483"/>
</g>
<!-- 98490782025&#45;&gt;98490781983 -->
<g id="edge21" class="edge"><title>98490782025:98490781968&#45;&gt;98490781983</title>
<path fill="none" stroke="black" d="M6163.77,-150.443C6164.1,-142.317 6164.49,-132.668 6164.86,-123.741"/>
<polygon fill="black" stroke="black" points="6168.35,-123.86 6165.26,-113.727 6161.36,-123.577 6168.35,-123.86"/>
</g>
</g>
</svg>
