<?xml version="1.0" encoding="UTF-8" standalone="no"?>
<!DOCTYPE svg PUBLIC "-//W3C//DTD SVG 1.1//EN"
 "http://www.w3.org/Graphics/SVG/1.1/DTD/svg11.dtd">
<!-- Generated by graphviz version 2.38.0 (20140413.2041)
 -->
<!-- Title: G Pages: 1 -->
<svg width="426pt" height="759pt"
 viewBox="0.00 0.00 425.50 759.00" xmlns="http://www.w3.org/2000/svg" xmlns:xlink="http://www.w3.org/1999/xlink">
<g id="graph0" class="graph" transform="scale(1 1) rotate(0) translate(4 755)">
<title>G</title>
<polygon fill="white" stroke="none" points="-4,4 -4,-755 421.5,-755 421.5,4 -4,4"/>
<!-- b1 -->
<g id="node1" class="node"><title>b1</title>
<polygon fill="none" stroke="black" points="63.5,-751 27.5,-751 27.5,-715 63.5,-715 63.5,-751"/>
<text text-anchor="middle" x="45.5" y="-729.3" font-family="Times New Roman,serif" font-size="14.00"> </text>
</g>
<!-- b2 -->
<g id="node2" class="node"><title>b2</title>
<polygon fill="none" stroke="black" points="63.5,-679 27.5,-679 27.5,-643 63.5,-643 63.5,-679"/>
<text text-anchor="middle" x="45.5" y="-657.3" font-family="Times New Roman,serif" font-size="14.00"> </text>
</g>
<!-- b1&#45;&gt;b2 -->
<g id="edge7" class="edge"><title>b1&#45;&gt;b2</title>
<path fill="none" stroke="black" d="M45.5,-714.697C45.5,-706.983 45.5,-697.712 45.5,-689.112"/>
<polygon fill="black" stroke="black" points="49.0001,-689.104 45.5,-679.104 42.0001,-689.104 49.0001,-689.104"/>
</g>
<!-- 20210000001 -->
<g id="node3" class="node"><title>20210000001</title>
<polygon fill="none" stroke="black" points="91,-607 0,-607 0,-516 91,-516 91,-607"/>
<text text-anchor="middle" x="45.5" y="-557.8" font-family="Times New Roman,serif" font-size="14.00">20210000001</text>
</g>
<!-- b2&#45;&gt;20210000001 -->
<g id="edge8" class="edge"><title>b2&#45;&gt;20210000001</title>
<path fill="none" stroke="black" d="M45.5,-642.569C45.5,-635.405 45.5,-626.677 45.5,-617.651"/>
<polygon fill="black" stroke="black" points="49.0001,-617.402 45.5,-607.402 42.0001,-617.402 49.0001,-617.402"/>
</g>
<!-- pendientes -->
<g id="node4" class="node"><title>pendientes</title>
<polygon fill="none" stroke="black" points="185.5,-599.5 109.5,-599.5 109.5,-523.5 185.5,-523.5 185.5,-599.5"/>
<text text-anchor="middle" x="147.5" y="-557.8" font-family="Times New Roman,serif" font-size="14.00">pendientes</text>
</g>
<!-- 20210000001&#45;&gt;pendientes -->
<g id="edge1" class="edge"><title>20210000001&#45;&gt;pendientes</title>
<path fill="none" stroke="black" d="M91.3203,-561.5C93.9446,-561.5 96.5689,-561.5 99.1931,-561.5"/>
<polygon fill="black" stroke="black" points="99.3154,-565 109.315,-561.5 99.3153,-558 99.3154,-565"/>
</g>
<!-- b3 -->
<g id="node7" class="node"><title>b3</title>
<polygon fill="none" stroke="black" points="63.5,-480 27.5,-480 27.5,-444 63.5,-444 63.5,-480"/>
<text text-anchor="middle" x="45.5" y="-458.3" font-family="Times New Roman,serif" font-size="14.00"> </text>
</g>
<!-- 20210000001&#45;&gt;b3 -->
<g id="edge9" class="edge"><title>20210000001&#45;&gt;b3</title>
<path fill="none" stroke="black" d="M45.5,-515.745C45.5,-507.072 45.5,-498.229 45.5,-490.325"/>
<polygon fill="black" stroke="black" points="49.0001,-490.231 45.5,-480.231 42.0001,-490.231 49.0001,-490.231"/>
</g>
<!-- block chain -->
<g id="node5" class="node"><title>block chain</title>
<polygon fill="none" stroke="black" points="285,-602 204,-602 204,-521 285,-521 285,-602"/>
<text text-anchor="middle" x="244.5" y="-557.8" font-family="Times New Roman,serif" font-size="14.00">block chain</text>
</g>
<!-- pendientes&#45;&gt;block chain -->
<g id="edge2" class="edge"><title>pendientes&#45;&gt;block chain</title>
<path fill="none" stroke="black" d="M185.77,-561.5C188.379,-561.5 190.989,-561.5 193.598,-561.5"/>
<polygon fill="black" stroke="black" points="193.664,-565 203.664,-561.5 193.664,-558 193.664,-565"/>
</g>
<!-- tabla hash -->
<g id="node6" class="node"><title>tabla hash</title>
<polygon fill="none" stroke="black" points="375.5,-597.5 303.5,-597.5 303.5,-525.5 375.5,-525.5 375.5,-597.5"/>
<text text-anchor="middle" x="339.5" y="-557.8" font-family="Times New Roman,serif" font-size="14.00">tabla hash</text>
</g>
<!-- block chain&#45;&gt;tabla hash -->
<g id="edge3" class="edge"><title>block chain&#45;&gt;tabla hash</title>
<path fill="none" stroke="black" d="M285.32,-561.5C287.82,-561.5 290.32,-561.5 292.82,-561.5"/>
<polygon fill="black" stroke="black" points="293.098,-565 303.098,-561.5 293.098,-558 293.098,-565"/>
</g>
<!-- 20210000003 -->
<g id="node8" class="node"><title>20210000003</title>
<polygon fill="none" stroke="black" points="91,-359.5 0,-359.5 0,-268.5 91,-268.5 91,-359.5"/>
<text text-anchor="middle" x="45.5" y="-310.3" font-family="Times New Roman,serif" font-size="14.00">20210000003</text>
</g>
<!-- b3&#45;&gt;20210000003 -->
<g id="edge10" class="edge"><title>b3&#45;&gt;20210000003</title>
<path fill="none" stroke="black" d="M45.5,-443.966C45.5,-425.837 45.5,-396.2 45.5,-369.905"/>
<polygon fill="black" stroke="black" points="49.0001,-369.645 45.5,-359.646 42.0001,-369.646 49.0001,-369.645"/>
</g>
<!-- Lab edd &#45;18/10 -->
<g id="node9" class="node"><title>Lab edd &#45;18/10</title>
<polygon fill="none" stroke="black" points="211.5,-365 109.5,-365 109.5,-263 211.5,-263 211.5,-365"/>
<text text-anchor="middle" x="160.5" y="-310.3" font-family="Times New Roman,serif" font-size="14.00">Lab edd &#45;18/10</text>
</g>
<!-- 20210000003&#45;&gt;Lab edd &#45;18/10 -->
<g id="edge4" class="edge"><title>20210000003&#45;&gt;Lab edd &#45;18/10</title>
<path fill="none" stroke="black" d="M91.3203,-314C93.9607,-314 96.6011,-314 99.2415,-314"/>
<polygon fill="black" stroke="black" points="99.426,-317.5 109.426,-314 99.4259,-310.5 99.426,-317.5"/>
</g>
<!-- 20210000004 -->
<g id="node11" class="node"><title>20210000004</title>
<polygon fill="none" stroke="black" points="91,-173.5 0,-173.5 0,-82.5 91,-82.5 91,-173.5"/>
<text text-anchor="middle" x="45.5" y="-124.3" font-family="Times New Roman,serif" font-size="14.00">20210000004</text>
</g>
<!-- 20210000003&#45;&gt;20210000004 -->
<g id="edge11" class="edge"><title>20210000003&#45;&gt;20210000004</title>
<path fill="none" stroke="black" d="M45.5,-268.459C45.5,-242.995 45.5,-210.852 45.5,-183.844"/>
<polygon fill="black" stroke="black" points="49.0001,-183.769 45.5,-173.769 42.0001,-183.769 49.0001,-183.769"/>
</g>
<!-- resumen primer parcial &#45;fisica2 -->
<g id="node10" class="node"><title>resumen primer parcial &#45;fisica2</title>
<polygon fill="none" stroke="black" points="417.5,-408 229.5,-408 229.5,-220 417.5,-220 417.5,-408"/>
<text text-anchor="middle" x="323.5" y="-310.3" font-family="Times New Roman,serif" font-size="14.00">resumen primer parcial &#45;fisica2</text>
</g>
<!-- Lab edd &#45;18/10&#45;&gt;resumen primer parcial &#45;fisica2 -->
<g id="edge5" class="edge"><title>Lab edd &#45;18/10&#45;&gt;resumen primer parcial &#45;fisica2</title>
<path fill="none" stroke="black" d="M211.756,-314C214.211,-314 216.666,-314 219.122,-314"/>
<polygon fill="black" stroke="black" points="219.216,-317.5 229.216,-314 219.216,-310.5 219.216,-317.5"/>
</g>
<!-- tareas pendientes -->
<g id="node12" class="node"><title>tareas pendientes</title>
<polygon fill="none" stroke="black" points="221.5,-184 109.5,-184 109.5,-72 221.5,-72 221.5,-184"/>
<text text-anchor="middle" x="165.5" y="-124.3" font-family="Times New Roman,serif" font-size="14.00">tareas pendientes</text>
</g>
<!-- 20210000004&#45;&gt;tareas pendientes -->
<g id="edge6" class="edge"><title>20210000004&#45;&gt;tareas pendientes</title>
<path fill="none" stroke="black" d="M91.4375,-128C94.0533,-128 96.6691,-128 99.2849,-128"/>
<polygon fill="black" stroke="black" points="99.3745,-131.5 109.375,-128 99.3745,-124.5 99.3745,-131.5"/>
</g>
<!-- b4 -->
<g id="node13" class="node"><title>b4</title>
<polygon fill="none" stroke="black" points="63.5,-36 27.5,-36 27.5,-0 63.5,-0 63.5,-36"/>
<text text-anchor="middle" x="45.5" y="-14.3" font-family="Times New Roman,serif" font-size="14.00"> </text>
</g>
<!-- 20210000004&#45;&gt;b4 -->
<g id="edge12" class="edge"><title>20210000004&#45;&gt;b4</title>
<path fill="none" stroke="black" d="M45.5,-82.4487C45.5,-70.2467 45.5,-57.3802 45.5,-46.4472"/>
<polygon fill="black" stroke="black" points="49.0001,-46.2547 45.5,-36.2548 42.0001,-46.2548 49.0001,-46.2547"/>
</g>
</g>
</svg>
