<?xml version="1.0" encoding="UTF-8" standalone="no"?>
<!DOCTYPE svg PUBLIC "-//W3C//DTD SVG 1.1//EN"
 "http://www.w3.org/Graphics/SVG/1.1/DTD/svg11.dtd">
<!-- Generated by graphviz version 2.38.0 (20140413.2041)
 -->
<!-- Title: G Pages: 1 -->
<svg width="44pt" height="476pt"
 viewBox="0.00 0.00 44.00 476.00" xmlns="http://www.w3.org/2000/svg" xmlns:xlink="http://www.w3.org/1999/xlink">
<g id="graph0" class="graph" transform="scale(1 1) rotate(0) translate(4 472)">
<title>G</title>
<polygon fill="white" stroke="none" points="-4,4 -4,-472 40,-472 40,4 -4,4"/>
<!-- b1 -->
<g id="node1" class="node"><title>b1</title>
<polygon fill="none" stroke="black" points="36,-468 0,-468 0,-432 36,-432 36,-468"/>
<text text-anchor="middle" x="18" y="-446.3" font-family="Times New Roman,serif" font-size="14.00"> </text>
</g>
<!-- b2 -->
<g id="node2" class="node"><title>b2</title>
<polygon fill="none" stroke="black" points="36,-396 0,-396 0,-360 36,-360 36,-396"/>
<text text-anchor="middle" x="18" y="-374.3" font-family="Times New Roman,serif" font-size="14.00"> </text>
</g>
<!-- b1&#45;&gt;b2 -->
<g id="edge1" class="edge"><title>b1&#45;&gt;b2</title>
<path fill="none" stroke="black" d="M18,-431.697C18,-423.983 18,-414.712 18,-406.112"/>
<polygon fill="black" stroke="black" points="21.5001,-406.104 18,-396.104 14.5001,-406.104 21.5001,-406.104"/>
</g>
<!-- b3 -->
<g id="node3" class="node"><title>b3</title>
<polygon fill="none" stroke="black" points="36,-324 0,-324 0,-288 36,-288 36,-324"/>
<text text-anchor="middle" x="18" y="-302.3" font-family="Times New Roman,serif" font-size="14.00"> </text>
</g>
<!-- b2&#45;&gt;b3 -->
<g id="edge2" class="edge"><title>b2&#45;&gt;b3</title>
<path fill="none" stroke="black" d="M18,-359.697C18,-351.983 18,-342.712 18,-334.112"/>
<polygon fill="black" stroke="black" points="21.5001,-334.104 18,-324.104 14.5001,-334.104 21.5001,-334.104"/>
</g>
<!-- b4 -->
<g id="node4" class="node"><title>b4</title>
<polygon fill="none" stroke="black" points="36,-252 0,-252 0,-216 36,-216 36,-252"/>
<text text-anchor="middle" x="18" y="-230.3" font-family="Times New Roman,serif" font-size="14.00"> </text>
</g>
<!-- b3&#45;&gt;b4 -->
<g id="edge3" class="edge"><title>b3&#45;&gt;b4</title>
<path fill="none" stroke="black" d="M18,-287.697C18,-279.983 18,-270.712 18,-262.112"/>
<polygon fill="black" stroke="black" points="21.5001,-262.104 18,-252.104 14.5001,-262.104 21.5001,-262.104"/>
</g>
<!-- b5 -->
<g id="node5" class="node"><title>b5</title>
<polygon fill="none" stroke="black" points="36,-180 0,-180 0,-144 36,-144 36,-180"/>
<text text-anchor="middle" x="18" y="-158.3" font-family="Times New Roman,serif" font-size="14.00"> </text>
</g>
<!-- b4&#45;&gt;b5 -->
<g id="edge4" class="edge"><title>b4&#45;&gt;b5</title>
<path fill="none" stroke="black" d="M18,-215.697C18,-207.983 18,-198.712 18,-190.112"/>
<polygon fill="black" stroke="black" points="21.5001,-190.104 18,-180.104 14.5001,-190.104 21.5001,-190.104"/>
</g>
<!-- b6 -->
<g id="node6" class="node"><title>b6</title>
<polygon fill="none" stroke="black" points="36,-108 0,-108 0,-72 36,-72 36,-108"/>
<text text-anchor="middle" x="18" y="-86.3" font-family="Times New Roman,serif" font-size="14.00"> </text>
</g>
<!-- b5&#45;&gt;b6 -->
<g id="edge5" class="edge"><title>b5&#45;&gt;b6</title>
<path fill="none" stroke="black" d="M18,-143.697C18,-135.983 18,-126.712 18,-118.112"/>
<polygon fill="black" stroke="black" points="21.5001,-118.104 18,-108.104 14.5001,-118.104 21.5001,-118.104"/>
</g>
<!-- b7 -->
<g id="node7" class="node"><title>b7</title>
<polygon fill="none" stroke="black" points="36,-36 0,-36 0,-0 36,-0 36,-36"/>
<text text-anchor="middle" x="18" y="-14.3" font-family="Times New Roman,serif" font-size="14.00"> </text>
</g>
<!-- b6&#45;&gt;b7 -->
<g id="edge6" class="edge"><title>b6&#45;&gt;b7</title>
<path fill="none" stroke="black" d="M18,-71.6966C18,-63.9827 18,-54.7125 18,-46.1124"/>
<polygon fill="black" stroke="black" points="21.5001,-46.1043 18,-36.1043 14.5001,-46.1044 21.5001,-46.1043"/>
</g>
</g>
</svg>
